<?xml version="1.0" encoding="UTF-8"?>
<!DOCTYPE svg PUBLIC "-//W3C//DTD SVG 1.1//EN" "http://www.w3.org/Graphics/SVG/1.1/DTD/svg11.dtd">
<svg xmlns="http://www.w3.org/2000/svg" version="1.1" width="128px" height="128px" style="shape-rendering:geometricPrecision; text-rendering:geometricPrecision; image-rendering:optimizeQuality; fill-rule:evenodd; clip-rule:evenodd" xmlns:xlink="http://www.w3.org/1999/xlink">
<g><path style="opacity:0.996" fill="#fde1e1" d="M 17.5,-0.5 C 48.1667,-0.5 78.8333,-0.5 109.5,-0.5C 117.833,3.16667 123.833,9.16667 127.5,17.5C 127.5,48.1667 127.5,78.8333 127.5,109.5C 123.833,117.833 117.833,123.833 109.5,127.5C 78.8333,127.5 48.1667,127.5 17.5,127.5C 9.16667,123.833 3.16667,117.833 -0.5,109.5C -0.5,78.8333 -0.5,48.1667 -0.5,17.5C 3.16667,9.16667 9.16667,3.16667 17.5,-0.5 Z"/></g>
<g><path style="opacity:1" fill="#f15957" d="M 86.5,19.5 C 88.5,19.5 90.5,19.5 92.5,19.5C 92.6666,47.502 92.5,75.502 92,103.5C 88.433,108.796 84.7663,108.796 81,103.5C 80.6667,92.8333 80.3333,82.1667 80,71.5C 78.172,69.9186 76.172,68.5853 74,67.5C 73.3333,55.5 73.3333,43.5 74,31.5C 76.7441,25.9206 80.9108,21.9206 86.5,19.5 Z"/></g>
<g><path style="opacity:1" fill="#fde0e0" d="M 85.5,22.5 C 86.8333,22.5 88.1667,22.5 89.5,22.5C 89.6666,49.5021 89.5,76.5021 89,103.5C 87.3333,104.833 85.6667,104.833 84,103.5C 83.6667,92.8333 83.3333,82.1667 83,71.5C 81.5437,69.0097 79.377,67.343 76.5,66.5C 75.3342,55.5151 75.1676,44.5151 76,33.5C 77.7983,28.5179 80.965,24.8512 85.5,22.5 Z"/></g>
<g><path style="opacity:1" fill="#f15552" d="M 55.5,55.5 C 53.5156,70.7977 52.8489,86.4643 53.5,102.5C 52.4118,106.748 49.7452,108.248 45.5,107C 44.2986,106.097 43.4652,104.931 43,103.5C 42.5001,87.5035 42.3334,71.5035 42.5,55.5C 38.4029,55.531 35.9029,53.531 35,49.5C 34.5002,39.8391 34.3335,30.1724 34.5,20.5C 35.5,20.5 36.5,20.5 37.5,20.5C 37.3335,30.5056 37.5002,40.5056 38,50.5C 39.8357,52.7084 42.169,54.0417 45,54.5C 45.3333,70.8333 45.6667,87.1667 46,103.5C 47.6667,104.833 49.3333,104.833 51,103.5C 51.4999,86.8367 51.6666,70.17 51.5,53.5C 54.7845,53.7307 57.2845,52.3974 59,49.5C 59.1679,39.8162 59.6679,30.1495 60.5,20.5C 61.6656,30.4834 61.8322,40.4834 61,50.5C 59.9455,53.0559 58.1122,54.7225 55.5,55.5 Z"/></g>
<g><path style="opacity:1" fill="#ef4545" d="M 53.5,20.5 C 54.821,23.5982 55.4877,27.0982 55.5,31C 55.1667,34.5 54.8333,38 54.5,41.5C 53.503,34.5316 53.1697,27.5316 53.5,20.5 Z"/></g>
<g><path style="opacity:1" fill="#f26160" d="M 46.5,20.5 C 47.5,20.5 48.5,20.5 49.5,20.5C 49.5,27.5 49.5,34.5 49.5,41.5C 48.5,41.5 47.5,41.5 46.5,41.5C 46.5,34.5 46.5,27.5 46.5,20.5 Z"/></g>
<g><path style="opacity:1" fill="#f15b59" d="M 40.5,20.5 C 41.5,20.5 42.5,20.5 43.5,20.5C 43.5,27.5 43.5,34.5 43.5,41.5C 42.5,41.5 41.5,41.5 40.5,41.5C 40.5,34.5 40.5,27.5 40.5,20.5 Z"/></g>
<g><path style="opacity:1" fill="#f7a1a1" d="M 55.5,55.5 C 54.8477,71.2647 54.1811,86.9314 53.5,102.5C 52.8489,86.4643 53.5156,70.7977 55.5,55.5 Z"/></g>
</svg>
