<?xml version="1.0" standalone="no"?>
<!DOCTYPE svg PUBLIC "-//W3C//DTD SVG 20010904//EN"
 "http://www.w3.org/TR/2001/REC-SVG-20010904/DTD/svg10.dtd">
<svg version="1.0" xmlns="http://www.w3.org/2000/svg"
 width="64.000000pt" height="64.000000pt" viewBox="0 0 64.000000 64.000000"
 preserveAspectRatio="xMidYMid meet">

<g transform="translate(0.000000,64.000000) scale(0.100000,-0.100000)"
fill="#000000" stroke="none">
<path d="M250 627 c-83 -27 -151 -138 -135 -224 12 -69 183 -403 205 -403 22
0 193 335 205 403 22 116 -90 240 -211 236 -16 -1 -45 -6 -64 -12z m163 -41
c23 -12 50 -39 64 -64 33 -55 29 -131 -10 -217 -35 -75 -140 -265 -147 -265
-7 0 -112 190 -147 265 -38 84 -42 161 -12 215 36 64 115 104 184 92 17 -2 47
-14 68 -26z"/>
<path d="M273 528 c-11 -5 -29 -25 -38 -43 -21 -37 -15 -75 15 -105 77 -77
206 11 156 105 -27 50 -82 68 -133 43z m100 -36 c27 -24 22 -76 -9 -101 -15
-12 -34 -21 -44 -21 -33 0 -70 39 -70 74 0 65 71 93 123 48z"/>
</g>
</svg>
