<?xml version="1.0" encoding="UTF-8"?>
<!DOCTYPE svg PUBLIC "-//W3C//DTD SVG 1.1//EN" "http://www.w3.org/Graphics/SVG/1.1/DTD/svg11.dtd">
<svg xmlns="http://www.w3.org/2000/svg" version="1.1" width="128px" height="128px" style="shape-rendering:geometricPrecision; text-rendering:geometricPrecision; image-rendering:optimizeQuality; fill-rule:evenodd; clip-rule:evenodd" xmlns:xlink="http://www.w3.org/1999/xlink">
<g><path style="opacity:0.996" fill="#fde1e1" d="M 17.5,-0.5 C 48.1667,-0.5 78.8333,-0.5 109.5,-0.5C 117.833,3.16667 123.833,9.16667 127.5,17.5C 127.5,48.1667 127.5,78.8333 127.5,109.5C 123.833,117.833 117.833,123.833 109.5,127.5C 78.8333,127.5 48.1667,127.5 17.5,127.5C 9.16667,123.833 3.16667,117.833 -0.5,109.5C -0.5,78.8333 -0.5,48.1667 -0.5,17.5C 3.16667,9.16667 9.16667,3.16667 17.5,-0.5 Z"/></g>
<g><path style="opacity:1" fill="#ef4b4a" d="M 49.5,26.5 C 54.9064,25.7353 56.9064,28.0687 55.5,33.5C 63.5069,33.3336 71.5069,33.5003 79.5,34C 82.1667,36.3333 82.1667,38.6667 79.5,41C 76.4465,41.1786 73.4465,41.6786 70.5,42.5C 67.4465,50.9458 63.1132,58.6125 57.5,65.5C 59.8167,68.3174 62.3167,70.9841 65,73.5C 66.5833,78.1004 65.0833,79.9337 60.5,79C 57.9518,76.1149 55.1185,73.6149 52,71.5C 46.2102,76.2876 40.7102,81.4543 35.5,87C 30.8996,88.5833 29.0663,87.0833 30,82.5C 35.6816,76.9854 41.1816,71.3187 46.5,65.5C 43.8045,61.9704 41.3045,58.3037 39,54.5C 37.4167,49.8996 38.9167,48.0663 43.5,49C 45.7234,53.2785 48.5568,57.1118 52,60.5C 57.2236,55.2239 61.057,49.0573 63.5,42C 50.5,41.6667 37.5,41.3333 24.5,41C 21.8333,38.6667 21.8333,36.3333 24.5,34C 32.4931,33.5003 40.4931,33.3336 48.5,33.5C 48.298,31.0504 48.6314,28.717 49.5,26.5 Z"/></g>
<g><path style="opacity:1" fill="#ef4847" d="M 80.5,56.5 C 83.9705,55.8748 86.8038,56.8748 89,59.5C 93.3333,71.1667 97.6667,82.8333 102,94.5C 103.066,100.56 101.066,101.894 96,98.5C 94.9625,95.5945 93.7958,92.7612 92.5,90C 86.4724,89.1697 80.4724,89.3364 74.5,90.5C 73.2957,93.7394 71.9624,96.906 70.5,100C 66.4943,100.987 64.661,99.4874 65,95.5C 69.8899,82.3183 75.0566,69.3183 80.5,56.5 Z"/></g>
<g><path style="opacity:1" fill="#fdd5d4" d="M 83.5,66.5 C 86.071,71.5372 88.071,76.8706 89.5,82.5C 85.4454,82.8242 81.4454,82.4909 77.5,81.5C 79.5078,76.4712 81.5078,71.4712 83.5,66.5 Z"/></g>
</svg>
