<?xml version="1.0" encoding="UTF-8"?>
<!DOCTYPE svg PUBLIC "-//W3C//DTD SVG 1.1//EN" "http://www.w3.org/Graphics/SVG/1.1/DTD/svg11.dtd">
<svg xmlns="http://www.w3.org/2000/svg" version="1.1" width="128px" height="128px" style="shape-rendering:geometricPrecision; text-rendering:geometricPrecision; image-rendering:optimizeQuality; fill-rule:evenodd; clip-rule:evenodd" xmlns:xlink="http://www.w3.org/1999/xlink">
<g><path style="opacity:0.996" fill="#fde1e1" d="M 17.5,-0.5 C 48.1667,-0.5 78.8333,-0.5 109.5,-0.5C 117.833,3.16667 123.833,9.16667 127.5,17.5C 127.5,48.1667 127.5,78.8333 127.5,109.5C 123.833,117.833 117.833,123.833 109.5,127.5C 78.8333,127.5 48.1667,127.5 17.5,127.5C 9.16667,123.833 3.16667,117.833 -0.5,109.5C -0.5,78.8333 -0.5,48.1667 -0.5,17.5C 3.16667,9.16667 9.16667,3.16667 17.5,-0.5 Z"/></g>
<g><path style="opacity:1" fill="#ef4a49" d="M 54.5,26.5 C 75.5076,24.9986 93.341,31.6653 108,46.5C 108.339,50.4874 106.506,51.9874 102.5,51C 86.0106,34.7112 66.6773,30.0446 44.5,37C 36.7838,40.1894 30.1171,44.8561 24.5,51C 20.4943,51.9874 18.661,50.4874 19,46.5C 28.766,36.0369 40.5994,29.3702 54.5,26.5 Z"/></g>
<g><path style="opacity:1" fill="#f04b4a" d="M 53.5,47.5 C 69.4706,45.3251 83.3039,49.6584 95,60.5C 96.0723,63.5527 95.0723,65.5527 92,66.5C 77.3831,53.0651 61.2164,50.8984 43.5,60C 40.9804,61.7632 38.6471,63.7632 36.5,66C 33.6466,66.6586 31.9799,65.492 31.5,62.5C 31.8757,60.6171 32.8757,59.1171 34.5,58C 40.3161,53.4282 46.6495,49.9282 53.5,47.5 Z"/></g>
<g><path style="opacity:1" fill="#ef4a49" d="M 57.5,67.5 C 66.699,66.2883 74.5323,68.9549 81,75.5C 82.1667,79.6667 80.6667,81.1667 76.5,80C 67.7846,72.8227 59.1179,72.8227 50.5,80C 46.3333,81.1667 44.8333,79.6667 46,75.5C 49.4821,72.1608 53.3155,69.4942 57.5,67.5 Z"/></g>
<g><path style="opacity:1" fill="#f04c4b" d="M 61.5,88.5 C 67.3034,88.81 69.4701,91.81 68,97.5C 64.2552,101.566 60.9218,101.233 58,96.5C 57.2793,92.9463 58.4459,90.2796 61.5,88.5 Z"/></g>
</svg>
